<?xml version="1.0" encoding="UTF-8" standalone="no"?>
<svg
   xmlns:dc="http://purl.org/dc/elements/1.1/"
   xmlns:cc="http://creativecommons.org/ns#"
   xmlns:rdf="http://www.w3.org/1999/02/22-rdf-syntax-ns#"
   xmlns:svg="http://www.w3.org/2000/svg"
   xmlns="http://www.w3.org/2000/svg"
   xmlns:sodipodi="http://sodipodi.sourceforge.net/DTD/sodipodi-0.dtd"
   xmlns:inkscape="http://www.inkscape.org/namespaces/inkscape"
   width="400pt"
   height="300pt"
   viewBox="0 0 400 300"
   version="1.1"
   id="svg3015"
   inkscape:version="0.48.4 r9939"
   sodipodi:docname="largeLogo.svg">
  <metadata
     id="metadata3033">
    <rdf:RDF>
      <cc:Work
         rdf:about="">
        <dc:format>image/svg+xml</dc:format>
        <dc:type
           rdf:resource="http://purl.org/dc/dcmitype/StillImage" />
        <dc:title></dc:title>
      </cc:Work>
    </rdf:RDF>
  </metadata>
  <defs
     id="defs3031" />
  <sodipodi:namedview
     pagecolor="#ffffff"
     bordercolor="#666666"
     borderopacity="1"
     objecttolerance="10"
     gridtolerance="10"
     guidetolerance="10"
     inkscape:pageopacity="0"
     inkscape:pageshadow="2"
     inkscape:window-width="1366"
     inkscape:window-height="705"
     id="namedview3029"
     showgrid="false"
     inkscape:zoom="1.144"
     inkscape:cx="390.45455"
     inkscape:cy="178.72667"
     inkscape:window-x="-8"
     inkscape:window-y="-8"
     inkscape:window-maximized="1"
     inkscape:current-layer="svg3015" />
  <path
     d="M 250.34375 17.59375 C 243.77319 17.613287 237.21719 17.954687 230.6875 18.625 C 192.475 22.6875 155.4375 38.45 126.6875 64.0625 C 96.0375 91.025 75.175 129.2875 70.75 170 C 68.9 191.7375 69.96875 213.975 76.59375 234.875 C 86.79375 268.6875 108.14375 298.8375 136.15625 320.25 C 162.70625 340.7875 195.0125 353.6375 228.3125 357.5625 C 253.05 360.1 278.3125 358.7375 302.3125 352 C 338.2125 342.1375 371.24375 321.3375 394.84375 292.4375 C 418.96875 263.25 433.14375 225.54375 432.40625 187.53125 C 432.69375 163.29375 426.9 139.09375 416.25 117.34375 C 399.05 81.63125 368.7375 52.79375 333 35.90625 C 307.325 23.55625 278.81616 17.509088 250.34375 17.59375 z M 248.34375 45.75 C 249.31992 45.734444 250.30469 45.744531 251.28125 45.75 C 286.35625 45.6 321.3125 59.1 347.0625 82.9375 C 369.475 103.0875 384.99375 130.66875 390.84375 160.21875 C 394.11875 175.61875 393.9125 191.5125 392.5625 207.125 C 384.7625 208.8125 378.96875 201.2625 376.09375 195 C 371.70625 182.6 368.375 169.81875 364 157.40625 C 361.5625 149.73125 354.725 143.45 346.8125 141.875 C 356.075 157.5625 359.44375 175.775 361.71875 193.625 C 361.99375 201.2625 363.9 208.975 362.1875 216.5625 C 363.0875 218.45 363.66875 220.84375 365.90625 221.59375 C 373.95625 224.46875 383.05625 221.525 390.90625 225.3125 C 395.40625 227.6125 399.80625 232.7875 397.90625 238.125 C 393.19375 254.625 382.93125 268.95 370.96875 281 C 367.85625 283.8125 363.25 284.49375 359.25 283.65625 C 349.5375 282.15625 340.975 276.21875 331 276.03125 C 324.9875 276.06875 319.24375 279.83125 317.15625 285.53125 C 312.94375 294.61875 317.95625 305.4 312.78125 314.1875 C 310.58125 318.3875 305.8875 319.78125 301.875 321.59375 C 301.6 317.55625 300.975 313.55625 300.6875 309.53125 C 300.1625 309.41875 299.11875 309.175 298.59375 309.0625 C 297.65625 314.0125 296.475 318.9625 295.3125 323.875 C 292.65 324.6 290.00625 325.34375 287.34375 326.09375 C 284.65625 326.80625 281.91875 327.3625 279.21875 328.0625 C 278.66875 323.3875 278.16875 318.7 277.84375 314 C 277.33125 314.0375 276.325 314.11875 275.8125 314.15625 C 274.6625 319.13125 273.3875 324.075 272.5625 329.125 C 266.7125 329.8625 260.85 330.6625 254.9375 330.625 C 254.075 325.25 252.95625 319.90625 252.46875 314.46875 C 251.63125 314.38125 250.79375 314.30625 249.96875 314.21875 C 249.35625 319.69375 248.175 325.0875 247.5625 330.5625 C 241.475 330.75 235.43125 329.825 229.40625 329.125 C 228.30625 324.1875 227.0125 319.29375 226.1875 314.28125 C 225.3375 314.26875 224.49375 314.2625 223.65625 314.25 C 223.41875 318.8375 223.1125 323.4125 222.8125 328 C 217.175 326.7125 211.4875 325.44375 206.125 323.21875 C 205.1625 318.44375 204.45625 313.5625 202.90625 308.9375 C 202.46875 309.075 201.58125 309.3625 201.15625 309.5 C 200.45625 313.4 200.50625 317.375 200.15625 321.3125 C 196.08125 319.8125 191.575 318.14375 189.4375 314.03125 C 184.5 305.36875 189.3 294.9375 185.375 286 C 183.575 280.5375 178.5 276.5625 172.75 276.125 C 162.6625 275.6 153.94375 281.6375 144.28125 283.4375 C 139.78125 284.575 134.48125 284.0125 131.03125 280.6875 C 119.18125 268.5 108.775 254.18125 104.375 237.53125 C 102.625 232.53125 106.65 227.81875 110.75 225.53125 C 118.55 221.61875 127.60625 224.3125 135.71875 221.8125 C 138.15625 221.1375 139.8625 218.76875 139.5625 216.21875 C 138.975 204.30625 140.3375 192.38125 142.375 180.65625 C 144.6875 169.08125 146.9125 157.175 152.875 146.8125 C 153.75 145.2125 154.46875 143.4875 155.03125 141.75 C 147.46875 143.8375 140.6875 149.64375 138.25 157.21875 C 133.8375 169.31875 130.81875 181.8625 126.46875 194 C 124.10625 200.4 119.125 206.0125 112.4375 208 C 111.75 207.625 110.375 206.90625 109.6875 206.53125 C 108.65 191.04375 108.23125 175.275 111.53125 160 C 118.11875 126.65 137.26875 96.0625 164.21875 75.375 C 188.12266 56.799219 218.0824 46.232246 248.34375 45.75 z "
     transform="scale(0.8,0.8)"
     id="path3019" />
  <path
     fill="#231f20"
     d=" M 131.02 136.72 C 132.24 133.03 133.39 128.75 136.92 126.59 C 140.54 125.74 142.35 129.73 143.58 132.40 C 147.45 142.75 147.98 154.03 147.53 164.97 C 147.13 171.94 146.14 178.98 143.64 185.54 C 142.64 187.82 141.45 190.37 139.09 191.50 C 136.73 192.30 134.92 190.20 133.85 188.39 C 131.03 183.35 129.93 177.58 129.22 171.91 C 132.47 170.50 135.70 169.02 138.79 167.27 C 135.38 166.24 131.96 165.25 128.52 164.31 C 128.26 155.06 128.65 145.70 131.02 136.72 Z"
     id="path3023" />
  <path
     fill="#231f20"
     d=" M 258.36 132.26 C 259.58 129.58 261.51 125.68 265.12 126.62 C 267.68 128.25 268.87 131.18 269.94 133.88 C 272.03 139.68 272.61 145.88 273.20 151.98 C 273.69 162.97 273.37 174.28 269.73 184.78 C 268.42 187.66 266.96 192.08 263.00 191.63 C 258.62 189.12 257.56 183.68 256.32 179.19 C 255.95 176.67 254.69 173.93 255.39 171.44 C 257.99 169.92 260.83 168.85 263.57 167.62 C 260.60 166.29 257.46 165.38 254.32 164.54 C 254.02 153.69 254.45 142.52 258.36 132.26 Z"
     id="path3025" />
  <path
     fill="#231f20"
     d=" M 194.69 180.50 C 196.02 177.89 197.42 175.13 199.91 173.45 C 202.87 173.00 204.47 176.02 205.78 178.14 C 209.70 185.53 212.22 193.66 213.62 201.89 C 214.16 204.50 213.02 206.98 210.27 207.48 C 207.23 206.05 204.50 203.51 200.97 203.55 C 197.29 203.42 194.47 206.19 191.18 207.39 C 190.53 207.10 189.24 206.50 188.59 206.20 C 188.23 204.47 187.63 202.70 188.18 200.93 C 189.47 193.88 191.67 186.99 194.69 180.50 Z"
     id="path3027" />
</svg>
